<mxfile host="app.diagrams.net" agent="Mozilla/5.0 (X11; Ubuntu; Linux x86_64; rv:142.0) Gecko/20100101 Firefox/142.0" version="28.2.1">
  <diagram name="Page-1" id="YlFp5dNQaG70qiIdqj7A">
    <mxGraphModel dx="815" dy="472" grid="1" gridSize="10" guides="1" tooltips="1" connect="1" arrows="1" fold="1" page="1" pageScale="1" pageWidth="1169" pageHeight="827" math="0" shadow="0">
      <root>
        <mxCell id="0" />
        <mxCell id="1" parent="0" />
        <mxCell id="ooCB2JZPqNHdC_XMYBrk-26" value="" style="html=1;dropTarget=0;whiteSpace=wrap;" vertex="1" parent="1">
          <mxGeometry x="230" y="270" width="570" height="330" as="geometry" />
        </mxCell>
        <mxCell id="ooCB2JZPqNHdC_XMYBrk-27" value="" style="shape=module;jettyWidth=8;jettyHeight=4;" vertex="1" parent="ooCB2JZPqNHdC_XMYBrk-26">
          <mxGeometry x="1" width="20" height="20" relative="1" as="geometry">
            <mxPoint x="-27" y="7" as="offset" />
          </mxGeometry>
        </mxCell>
        <mxCell id="ooCB2JZPqNHdC_XMYBrk-1" value="«component»&lt;br&gt;&lt;b&gt;Domain Models&lt;/b&gt;" style="html=1;dropTarget=0;whiteSpace=wrap;" vertex="1" parent="1">
          <mxGeometry x="490" y="300" width="140" height="70" as="geometry" />
        </mxCell>
        <mxCell id="ooCB2JZPqNHdC_XMYBrk-2" value="" style="shape=module;jettyWidth=8;jettyHeight=4;" vertex="1" parent="ooCB2JZPqNHdC_XMYBrk-1">
          <mxGeometry x="1" width="20" height="20" relative="1" as="geometry">
            <mxPoint x="-27" y="7" as="offset" />
          </mxGeometry>
        </mxCell>
        <mxCell id="ooCB2JZPqNHdC_XMYBrk-3" value="" style="html=1;verticalAlign=bottom;labelBackgroundColor=none;endArrow=oval;endFill=0;endSize=8;rounded=0;" edge="1" parent="1" source="ooCB2JZPqNHdC_XMYBrk-1">
          <mxGeometry width="160" relative="1" as="geometry">
            <mxPoint x="584" y="410" as="sourcePoint" />
            <mxPoint x="560" y="410" as="targetPoint" />
          </mxGeometry>
        </mxCell>
        <mxCell id="ooCB2JZPqNHdC_XMYBrk-4" value="Domain Models" style="text;html=1;align=center;verticalAlign=middle;whiteSpace=wrap;rounded=0;fontSize=7;" vertex="1" parent="1">
          <mxGeometry x="565" y="384" width="40" height="30" as="geometry" />
        </mxCell>
        <mxCell id="ooCB2JZPqNHdC_XMYBrk-5" value="&lt;div&gt;«component»&lt;b&gt;&lt;br&gt;&lt;/b&gt;&lt;/div&gt;&lt;div&gt;&lt;b&gt;Domain Services&lt;/b&gt;&lt;/div&gt;" style="html=1;dropTarget=0;whiteSpace=wrap;" vertex="1" parent="1">
          <mxGeometry x="350" y="440" width="140" height="70" as="geometry" />
        </mxCell>
        <mxCell id="ooCB2JZPqNHdC_XMYBrk-6" value="" style="shape=module;jettyWidth=8;jettyHeight=4;" vertex="1" parent="ooCB2JZPqNHdC_XMYBrk-5">
          <mxGeometry x="1" width="20" height="20" relative="1" as="geometry">
            <mxPoint x="-27" y="7" as="offset" />
          </mxGeometry>
        </mxCell>
        <mxCell id="ooCB2JZPqNHdC_XMYBrk-7" value="&lt;div&gt;«component»&lt;b&gt;&lt;br&gt;&lt;/b&gt;&lt;/div&gt;&lt;div&gt;&lt;b&gt;Domain Repositories&lt;/b&gt;&lt;/div&gt;" style="html=1;dropTarget=0;whiteSpace=wrap;" vertex="1" parent="1">
          <mxGeometry x="620" y="440" width="140" height="70" as="geometry" />
        </mxCell>
        <mxCell id="ooCB2JZPqNHdC_XMYBrk-8" value="" style="shape=module;jettyWidth=8;jettyHeight=4;" vertex="1" parent="ooCB2JZPqNHdC_XMYBrk-7">
          <mxGeometry x="1" width="20" height="20" relative="1" as="geometry">
            <mxPoint x="-27" y="7" as="offset" />
          </mxGeometry>
        </mxCell>
        <mxCell id="ooCB2JZPqNHdC_XMYBrk-9" value="" style="html=1;verticalAlign=bottom;labelBackgroundColor=none;endArrow=oval;endFill=0;endSize=8;rounded=0;" edge="1" parent="1" source="ooCB2JZPqNHdC_XMYBrk-7">
          <mxGeometry width="160" relative="1" as="geometry">
            <mxPoint x="570" y="380" as="sourcePoint" />
            <mxPoint x="560" y="550" as="targetPoint" />
          </mxGeometry>
        </mxCell>
        <mxCell id="ooCB2JZPqNHdC_XMYBrk-10" value="" style="rounded=0;orthogonalLoop=1;jettySize=auto;html=1;endArrow=halfCircle;endFill=0;endSize=6;strokeWidth=1;sketch=0;fontSize=12;curved=1;" edge="1" parent="1" source="ooCB2JZPqNHdC_XMYBrk-5">
          <mxGeometry relative="1" as="geometry">
            <mxPoint x="575" y="445" as="sourcePoint" />
            <mxPoint x="560" y="550" as="targetPoint" />
          </mxGeometry>
        </mxCell>
        <mxCell id="ooCB2JZPqNHdC_XMYBrk-12" value="Repositories" style="text;html=1;align=center;verticalAlign=middle;whiteSpace=wrap;rounded=0;fontSize=7;" vertex="1" parent="1">
          <mxGeometry x="535" y="520" width="50" height="20" as="geometry" />
        </mxCell>
        <mxCell id="ooCB2JZPqNHdC_XMYBrk-13" value="" style="rounded=0;orthogonalLoop=1;jettySize=auto;html=1;endArrow=halfCircle;endFill=0;endSize=6;strokeWidth=1;sketch=0;fontSize=12;curved=1;" edge="1" parent="1" source="ooCB2JZPqNHdC_XMYBrk-5">
          <mxGeometry relative="1" as="geometry">
            <mxPoint x="500" y="485" as="sourcePoint" />
            <mxPoint x="560" y="410" as="targetPoint" />
          </mxGeometry>
        </mxCell>
        <mxCell id="ooCB2JZPqNHdC_XMYBrk-14" value="" style="rounded=0;orthogonalLoop=1;jettySize=auto;html=1;endArrow=halfCircle;endFill=0;endSize=6;strokeWidth=1;sketch=0;fontSize=12;curved=1;" edge="1" parent="1" source="ooCB2JZPqNHdC_XMYBrk-7">
          <mxGeometry relative="1" as="geometry">
            <mxPoint x="500" y="453" as="sourcePoint" />
            <mxPoint x="560" y="410" as="targetPoint" />
          </mxGeometry>
        </mxCell>
        <mxCell id="ooCB2JZPqNHdC_XMYBrk-15" value="" style="html=1;verticalAlign=bottom;labelBackgroundColor=none;endArrow=oval;endFill=0;endSize=8;rounded=0;" edge="1" parent="1" source="ooCB2JZPqNHdC_XMYBrk-5">
          <mxGeometry width="160" relative="1" as="geometry">
            <mxPoint x="639" y="520" as="sourcePoint" />
            <mxPoint x="320" y="475" as="targetPoint" />
          </mxGeometry>
        </mxCell>
        <mxCell id="ooCB2JZPqNHdC_XMYBrk-16" value="Services" style="text;html=1;align=center;verticalAlign=middle;whiteSpace=wrap;rounded=0;fontSize=7;" vertex="1" parent="1">
          <mxGeometry x="300" y="450" width="50" height="20" as="geometry" />
        </mxCell>
        <mxCell id="ooCB2JZPqNHdC_XMYBrk-22" value="&lt;div&gt;«delegate»&lt;b&gt;&lt;br&gt;&lt;/b&gt;&lt;/div&gt;" style="edgeStyle=orthogonalEdgeStyle;rounded=0;orthogonalLoop=1;jettySize=auto;html=1;dashed=1;dashPattern=8 8;spacingTop=22;" edge="1" parent="1" source="ooCB2JZPqNHdC_XMYBrk-19">
          <mxGeometry relative="1" as="geometry">
            <mxPoint x="320" y="475" as="targetPoint" />
          </mxGeometry>
        </mxCell>
        <mxCell id="ooCB2JZPqNHdC_XMYBrk-19" value="" style="html=1;rounded=0;" vertex="1" parent="1">
          <mxGeometry x="220" y="465" width="20" height="20" as="geometry" />
        </mxCell>
        <mxCell id="ooCB2JZPqNHdC_XMYBrk-23" value="" style="html=1;rounded=0;" vertex="1" parent="1">
          <mxGeometry x="790" y="540" width="20" height="20" as="geometry" />
        </mxCell>
        <mxCell id="ooCB2JZPqNHdC_XMYBrk-25" value="&lt;div&gt;«delegate»&lt;b&gt;&lt;br&gt;&lt;/b&gt;&lt;/div&gt;" style="edgeStyle=orthogonalEdgeStyle;rounded=0;orthogonalLoop=1;jettySize=auto;html=1;dashed=1;dashPattern=8 8;spacingTop=22;" edge="1" parent="1" source="ooCB2JZPqNHdC_XMYBrk-23">
          <mxGeometry relative="1" as="geometry">
            <mxPoint x="560" y="550" as="targetPoint" />
            <mxPoint x="750" y="685" as="sourcePoint" />
          </mxGeometry>
        </mxCell>
        <mxCell id="ooCB2JZPqNHdC_XMYBrk-28" value="&lt;div&gt;«component»&lt;b&gt;&lt;br&gt;&lt;/b&gt;&lt;/div&gt;&lt;div&gt;&lt;b&gt;Domain&lt;/b&gt;&lt;/div&gt;" style="text;html=1;align=center;verticalAlign=middle;whiteSpace=wrap;rounded=0;" vertex="1" parent="1">
          <mxGeometry x="240" y="280" width="110" height="50" as="geometry" />
        </mxCell>
        <mxCell id="ooCB2JZPqNHdC_XMYBrk-29" value="" style="html=1;rounded=0;" vertex="1" parent="1">
          <mxGeometry x="220" y="400" width="20" height="20" as="geometry" />
        </mxCell>
        <mxCell id="ooCB2JZPqNHdC_XMYBrk-30" value="" style="html=1;rounded=0;" vertex="1" parent="1">
          <mxGeometry x="790" y="400" width="20" height="20" as="geometry" />
        </mxCell>
        <mxCell id="ooCB2JZPqNHdC_XMYBrk-31" value="&lt;div&gt;«delegate»&lt;b&gt;&lt;br&gt;&lt;/b&gt;&lt;/div&gt;" style="edgeStyle=orthogonalEdgeStyle;rounded=0;orthogonalLoop=1;jettySize=auto;html=1;dashed=1;dashPattern=8 8;spacingTop=0;spacingBottom=22;" edge="1" parent="1" source="ooCB2JZPqNHdC_XMYBrk-30">
          <mxGeometry relative="1" as="geometry">
            <mxPoint x="560" y="410" as="targetPoint" />
            <mxPoint x="800" y="560" as="sourcePoint" />
          </mxGeometry>
        </mxCell>
        <mxCell id="ooCB2JZPqNHdC_XMYBrk-32" value="&lt;div&gt;«delegate»&lt;b&gt;&lt;br&gt;&lt;/b&gt;&lt;/div&gt;" style="edgeStyle=orthogonalEdgeStyle;rounded=0;orthogonalLoop=1;jettySize=auto;html=1;dashed=1;dashPattern=8 8;spacingTop=0;spacingBottom=22;" edge="1" parent="1" source="ooCB2JZPqNHdC_XMYBrk-29">
          <mxGeometry relative="1" as="geometry">
            <mxPoint x="560" y="410" as="targetPoint" />
            <mxPoint x="800" y="420" as="sourcePoint" />
          </mxGeometry>
        </mxCell>
      </root>
    </mxGraphModel>
  </diagram>
</mxfile>
